G04 ---------------------------- Layer name :TOP LAYER*
G04 easyEDA 0.1*
G04 Scale: 100 percent, Rotated: No, Reflected: No *
G04 Dimensions in inches *
G04 leading zeros omitted , absolute positions ,2 integer and 4 * 
%FSLAX24Y24*%
%MOIN*%
G90*
G70D02*

%ADD11C,0.020000*%
%ADD12C,0.200000*%
%ADD13C,0.008000*%
%ADD14C,0.024400*%
%ADD15C,0.074000*%
%ADD17C,0.070866*%
%ADD19R,0.066000X0.066000*%
%ADD20R,0.080000X0.080000*%
%ADD21C,0.080000*%

%LPD*%
G54D11*
G01X7000Y21300D02*
G01X7000Y15000D01*
G01X8000Y15000D01*
G01X8000Y14000D01*
G01X8000Y21300D02*
G01X8000Y16000D01*
G01X11000Y16000D01*
G01X11000Y14000D01*
G01X10000Y21300D02*
G01X10000Y18000D01*
G01X17000Y18000D01*
G01X17000Y14000D01*
G01X11000Y21300D02*
G01X11000Y19000D01*
G01X20000Y19000D01*
G01X20000Y14000D01*
G01X12000Y21000D02*
G01X12000Y20000D01*
G01X23000Y20000D01*
G01X23000Y14000D01*
G01X9000Y21000D02*
G01X9000Y17000D01*
G01X14000Y17000D01*
G01X14000Y14000D01*
G54D12*
G01X2600Y12980D02*
G01X5000Y12980D01*
G01X5000Y13000D01*
G01X5000Y10000D02*
G01X5000Y13000D01*
G01X5000Y10000D02*
G01X23000Y10000D01*
G54D11*
G01X8000Y13000D02*
G01X5000Y13000D01*
G01X5000Y12980D01*
G01X11000Y13000D02*
G01X9600Y13000D01*
G01X9600Y10000D01*
G01X14000Y13000D02*
G01X12600Y13000D01*
G01X12600Y10000D01*
G01X17000Y13000D02*
G01X15400Y13000D01*
G01X15400Y10000D01*
G01X20000Y13000D02*
G01X18600Y13000D01*
G01X18600Y10000D01*
G01X23000Y13000D02*
G01X21600Y13000D01*
G01X21600Y10000D01*
G01X8000Y7000D02*
G01X6700Y7000D01*
G01X6700Y10000D01*
G01X8000Y6000D02*
G01X9000Y6000D01*
G01X9000Y2000D01*
G01X11000Y6000D02*
G01X11000Y5000D01*
G01X10000Y5000D01*
G01X10000Y2000D01*
G01X14000Y6000D02*
G01X14000Y4600D01*
G01X11000Y4600D01*
G01X11000Y2000D01*
G01X17000Y6000D02*
G01X17000Y4200D01*
G01X12000Y4200D01*
G01X12000Y2000D01*
G01X20000Y6000D02*
G01X20000Y3700D01*
G01X13000Y3700D01*
G01X13000Y2000D01*
G01X18000Y21000D02*
G01X18000Y21800D01*
G01X28993Y21800D01*
G01X28993Y3561D01*
G01X30993Y3561D02*
G01X31000Y4600D01*
G01X32600Y4600D01*
G01X32600Y1400D01*
G01X17600Y1400D01*
G01X17600Y2000D01*
G01X31993Y2561D02*
G01X32000Y1700D01*
G01X24000Y1700D01*
G01X24000Y2900D01*
G01X18600Y2900D01*
G01X18600Y2000D01*
G01X21600Y10000D02*
G01X21700Y10000D01*
G01X21700Y7000D01*
G01X23000Y7000D01*
G01X23000Y6000D02*
G01X23000Y4100D01*
G54D13*
G01X527Y4236D02*
G01X199Y4236D01*
G01X363Y4400D02*
G01X363Y4073D01*
G01X508Y3953D02*
G01X527Y3915D01*
G01X581Y3861D01*
G01X199Y3861D01*
G01X490Y3723D02*
G01X508Y3723D01*
G01X545Y3705D01*
G01X563Y3686D01*
G01X581Y3651D01*
G01X581Y3578D01*
G01X563Y3542D01*
G01X545Y3523D01*
G01X508Y3505D01*
G01X472Y3505D01*
G01X436Y3523D01*
G01X381Y3559D01*
G01X199Y3742D01*
G01X199Y3486D01*
G01X581Y3367D02*
G01X199Y3221D01*
G01X581Y3076D02*
G01X199Y3221D01*
G01X491Y6426D02*
G01X528Y6444D01*
G01X564Y6482D01*
G01X582Y6517D01*
G01X582Y6590D01*
G01X564Y6626D01*
G01X528Y6663D01*
G01X491Y6682D01*
G01X437Y6700D01*
G01X346Y6700D01*
G01X291Y6682D01*
G01X255Y6663D01*
G01X219Y6626D01*
G01X200Y6590D01*
G01X200Y6517D01*
G01X219Y6482D01*
G01X255Y6444D01*
G01X291Y6426D01*
G01X346Y6426D01*
G01X346Y6517D02*
G01X346Y6426D01*
G01X582Y6307D02*
G01X200Y6307D01*
G01X582Y6307D02*
G01X200Y6053D01*
G01X582Y6053D02*
G01X200Y6053D01*
G01X582Y5932D02*
G01X200Y5932D01*
G01X582Y5932D02*
G01X582Y5805D01*
G01X564Y5751D01*
G01X528Y5715D01*
G01X491Y5696D01*
G01X437Y5678D01*
G01X346Y5678D01*
G01X291Y5696D01*
G01X255Y5715D01*
G01X219Y5751D01*
G01X200Y5805D01*
G01X200Y5932D01*
G01X528Y13436D02*
G01X200Y13436D01*
G01X364Y13600D02*
G01X364Y13273D01*
G01X582Y12934D02*
G01X582Y13115D01*
G01X419Y13134D01*
G01X437Y13115D01*
G01X455Y13061D01*
G01X455Y13007D01*
G01X437Y12953D01*
G01X400Y12915D01*
G01X346Y12898D01*
G01X309Y12898D01*
G01X255Y12915D01*
G01X219Y12953D01*
G01X200Y13007D01*
G01X200Y13061D01*
G01X219Y13115D01*
G01X237Y13134D01*
G01X273Y13153D01*
G01X582Y12778D02*
G01X200Y12632D01*
G01X582Y12486D02*
G01X200Y12632D01*
G01X491Y11126D02*
G01X528Y11144D01*
G01X564Y11182D01*
G01X582Y11217D01*
G01X582Y11290D01*
G01X564Y11326D01*
G01X528Y11363D01*
G01X491Y11382D01*
G01X437Y11400D01*
G01X346Y11400D01*
G01X291Y11382D01*
G01X255Y11363D01*
G01X219Y11326D01*
G01X200Y11290D01*
G01X200Y11217D01*
G01X219Y11182D01*
G01X255Y11144D01*
G01X291Y11126D01*
G01X346Y11126D01*
G01X346Y11217D02*
G01X346Y11126D01*
G01X582Y11007D02*
G01X200Y11007D01*
G01X582Y11007D02*
G01X200Y10753D01*
G01X582Y10753D02*
G01X200Y10753D01*
G01X582Y10632D02*
G01X200Y10632D01*
G01X582Y10632D02*
G01X582Y10505D01*
G01X564Y10451D01*
G01X528Y10415D01*
G01X491Y10396D01*
G01X437Y10378D01*
G01X346Y10378D01*
G01X291Y10396D01*
G01X255Y10415D01*
G01X219Y10451D01*
G01X200Y10505D01*
G01X200Y10632D01*
G01X24572Y8126D02*
G01X24555Y8163D01*
G01X24518Y8200D01*
G01X24481Y8217D01*
G01X24409Y8217D01*
G01X24372Y8200D01*
G01X24335Y8163D01*
G01X24318Y8126D01*
G01X24300Y8073D01*
G01X24300Y7982D01*
G01X24318Y7926D01*
G01X24335Y7890D01*
G01X24372Y7855D01*
G01X24409Y7836D01*
G01X24481Y7836D01*
G01X24518Y7855D01*
G01X24555Y7890D01*
G01X24572Y7926D01*
G01X24572Y7982D01*
G01X24481Y7982D02*
G01X24572Y7982D01*
G01X24693Y8217D02*
G01X24693Y7836D01*
G01X24693Y8217D02*
G01X24947Y7836D01*
G01X24947Y8217D02*
G01X24947Y7836D01*
G01X25067Y8217D02*
G01X25067Y7836D01*
G01X25067Y8217D02*
G01X25194Y8217D01*
G01X25248Y8200D01*
G01X25285Y8163D01*
G01X25303Y8126D01*
G01X25322Y8073D01*
G01X25322Y7982D01*
G01X25303Y7926D01*
G01X25285Y7890D01*
G01X25248Y7855D01*
G01X25194Y7836D01*
G01X25067Y7836D01*
G01X24464Y7163D02*
G01X24464Y6836D01*
G01X24300Y7000D02*
G01X24627Y7000D01*
G01X24964Y7217D02*
G01X24784Y7217D01*
G01X24764Y7055D01*
G01X24784Y7073D01*
G01X24838Y7090D01*
G01X24893Y7090D01*
G01X24947Y7073D01*
G01X24984Y7036D01*
G01X25002Y6982D01*
G01X25002Y6944D01*
G01X24984Y6890D01*
G01X24947Y6855D01*
G01X24893Y6836D01*
G01X24838Y6836D01*
G01X24784Y6855D01*
G01X24764Y6873D01*
G01X24747Y6909D01*
G01X25122Y7217D02*
G01X25267Y6836D01*
G01X25413Y7217D02*
G01X25267Y6836D01*
G01X24300Y6117D02*
G01X24300Y5736D01*
G01X24419Y6117D02*
G01X24419Y5736D01*
G01X24419Y6117D02*
G01X24675Y5736D01*
G01X24675Y6117D02*
G01X24675Y5736D01*
G01X24772Y12009D02*
G01X24755Y12046D01*
G01X24718Y12082D01*
G01X24681Y12100D01*
G01X24609Y12100D01*
G01X24572Y12082D01*
G01X24535Y12046D01*
G01X24518Y12009D01*
G01X24500Y11955D01*
G01X24500Y11863D01*
G01X24518Y11809D01*
G01X24535Y11773D01*
G01X24572Y11736D01*
G01X24609Y11717D01*
G01X24681Y11717D01*
G01X24718Y11736D01*
G01X24755Y11773D01*
G01X24772Y11809D01*
G01X24772Y11863D01*
G01X24681Y11863D02*
G01X24772Y11863D01*
G01X24893Y12100D02*
G01X24893Y11717D01*
G01X24893Y12100D02*
G01X25147Y11717D01*
G01X25147Y12100D02*
G01X25147Y11717D01*
G01X25267Y12100D02*
G01X25267Y11717D01*
G01X25267Y12100D02*
G01X25394Y12100D01*
G01X25448Y12082D01*
G01X25485Y12046D01*
G01X25503Y12009D01*
G01X25522Y11955D01*
G01X25522Y11863D01*
G01X25503Y11809D01*
G01X25485Y11773D01*
G01X25448Y11736D01*
G01X25394Y11717D01*
G01X25267Y11717D01*
G01X24664Y13046D02*
G01X24664Y12717D01*
G01X24500Y12882D02*
G01X24827Y12882D01*
G01X25164Y13100D02*
G01X24984Y13100D01*
G01X24964Y12936D01*
G01X24984Y12955D01*
G01X25038Y12973D01*
G01X25093Y12973D01*
G01X25147Y12955D01*
G01X25184Y12917D01*
G01X25202Y12863D01*
G01X25202Y12826D01*
G01X25184Y12773D01*
G01X25147Y12736D01*
G01X25093Y12717D01*
G01X25038Y12717D01*
G01X24984Y12736D01*
G01X24964Y12755D01*
G01X24947Y12790D01*
G01X25322Y13100D02*
G01X25467Y12717D01*
G01X25613Y13100D02*
G01X25467Y12717D01*
G01X24500Y14117D02*
G01X24500Y13736D01*
G01X24619Y14117D02*
G01X24619Y13736D01*
G01X24619Y14117D02*
G01X24875Y13736D01*
G01X24875Y14117D02*
G01X24875Y13736D01*
G54D15*
G01X8000Y14000D03*
G01X8000Y13000D03*
G01X8000Y12000D03*
G01X11000Y14000D03*
G01X11000Y13000D03*
G01X11000Y12000D03*
G01X14000Y14000D03*
G01X14000Y13000D03*
G01X14000Y12000D03*
G01X17000Y14000D03*
G01X17000Y13000D03*
G01X17000Y12000D03*
G01X20000Y14000D03*
G01X20000Y13000D03*
G01X20000Y12000D03*
G01X23000Y14000D03*
G01X23000Y13000D03*
G01X23000Y12000D03*
G01X8000Y6000D03*
G01X8000Y7000D03*
G01X8000Y8000D03*
G54D17*
G01X28994Y2561D03*
G01X28993Y3561D03*
G01X29993Y2561D03*
G01X29993Y3561D03*
G01X30993Y2561D03*
G01X30993Y3561D03*
G01X31993Y2561D03*
G01X31993Y3561D03*
G54D15*
G01X20000Y6000D03*
G01X20000Y7000D03*
G01X20000Y8000D03*
G01X17000Y6000D03*
G01X17000Y7000D03*
G01X17000Y8000D03*
G01X14000Y6000D03*
G01X14000Y7000D03*
G01X14000Y8000D03*
G01X11000Y6000D03*
G01X11000Y7000D03*
G01X11000Y8000D03*
G54D19*
G01X11000Y2000D03*
G01X12000Y21000D03*
G01X10000Y2000D03*
G01X9000Y2000D03*
G01X8000Y2000D03*
G01X7000Y2000D03*
G01X12000Y2000D03*
G01X13000Y2000D03*
G01X14000Y2000D03*
G01X15600Y2000D03*
G01X16600Y2000D03*
G01X17600Y2000D03*
G01X18600Y2000D03*
G01X19600Y2000D03*
G01X20600Y2000D03*
G01X21600Y2000D03*
G01X22600Y2000D03*
G01X11000Y21000D03*
G01X10000Y21000D03*
G01X9000Y21000D03*
G01X8000Y21000D03*
G01X7000Y21000D03*
G01X14000Y21000D03*
G01X15000Y21000D03*
G01X16000Y21000D03*
G01X17000Y21000D03*
G01X18000Y21000D03*
G01X19000Y21000D03*
G54D20*
G01X3000Y11019D03*
G54D21*
G01X3000Y12980D03*
G54D20*
G01X3000Y5980D03*
G54D21*
G01X3000Y4019D03*
G54D15*
G01X23000Y6000D03*
G01X23000Y7000D03*
G01X23000Y8000D03*
G54D14*
G01X23000Y4100D03*
G54D15*
G01X8000Y14000D03*
G01X8000Y13000D03*
G01X8000Y12000D03*
G01X11000Y14000D03*
G01X11000Y13000D03*
G01X11000Y12000D03*
G01X14000Y14000D03*
G01X14000Y13000D03*
G01X14000Y12000D03*
G01X17000Y14000D03*
G01X17000Y13000D03*
G01X17000Y12000D03*
G01X20000Y14000D03*
G01X20000Y13000D03*
G01X20000Y12000D03*
G01X23000Y14000D03*
G01X23000Y13000D03*
G01X23000Y12000D03*
G01X8000Y6000D03*
G01X8000Y7000D03*
G01X8000Y8000D03*
G54D17*
G01X28994Y2561D03*
G01X28993Y3561D03*
G01X29993Y2561D03*
G01X29993Y3561D03*
G01X30993Y2561D03*
G01X30993Y3561D03*
G01X31993Y2561D03*
G01X31993Y3561D03*
G54D15*
G01X20000Y6000D03*
G01X20000Y7000D03*
G01X20000Y8000D03*
G01X17000Y6000D03*
G01X17000Y7000D03*
G01X17000Y8000D03*
G01X14000Y6000D03*
G01X14000Y7000D03*
G01X14000Y8000D03*
G01X11000Y6000D03*
G01X11000Y7000D03*
G01X11000Y8000D03*
G54D19*
G01X11000Y2000D03*
G01X12000Y21000D03*
G01X10000Y2000D03*
G01X9000Y2000D03*
G01X8000Y2000D03*
G01X7000Y2000D03*
G01X12000Y2000D03*
G01X13000Y2000D03*
G01X14000Y2000D03*
G01X15600Y2000D03*
G01X16600Y2000D03*
G01X17600Y2000D03*
G01X18600Y2000D03*
G01X19600Y2000D03*
G01X20600Y2000D03*
G01X21600Y2000D03*
G01X22600Y2000D03*
G01X11000Y21000D03*
G01X10000Y21000D03*
G01X9000Y21000D03*
G01X8000Y21000D03*
G01X7000Y21000D03*
G01X14000Y21000D03*
G01X15000Y21000D03*
G01X16000Y21000D03*
G01X17000Y21000D03*
G01X18000Y21000D03*
G01X19000Y21000D03*
G54D20*
G01X3000Y11019D03*
G54D21*
G01X3000Y12980D03*
G54D20*
G01X3000Y5980D03*
G54D21*
G01X3000Y4019D03*
G54D15*
G01X23000Y6000D03*
G01X23000Y7000D03*
G01X23000Y8000D03*

M00*
M02*