G04 ---------------------------- Layer name :BOTTOM SOLDER LAYER*
G04 easyEDA 0.1*
G04 Scale: 100 percent, Rotated: No, Reflected: No *
G04 Dimensions in inches *
G04 leading zeros omitted , absolute positions ,2 integer and 4 * 
%FSLAX24Y24*%
%MOIN*%
G90*
G70D02*

%ADD12C,0.082000*%
%ADD14C,0.078866*%
%ADD16R,0.074000X0.074000*%
%ADD17R,0.088000X0.088000*%
%ADD18C,0.088000*%

%LPD*%
G54D12*
G01X8000Y14000D03*
G01X8000Y13000D03*
G01X8000Y12000D03*
G01X11000Y14000D03*
G01X11000Y13000D03*
G01X11000Y12000D03*
G01X14000Y14000D03*
G01X14000Y13000D03*
G01X14000Y12000D03*
G01X17000Y14000D03*
G01X17000Y13000D03*
G01X17000Y12000D03*
G01X20000Y14000D03*
G01X20000Y13000D03*
G01X20000Y12000D03*
G01X23000Y14000D03*
G01X23000Y13000D03*
G01X23000Y12000D03*
G01X8000Y6000D03*
G01X8000Y7000D03*
G01X8000Y8000D03*
G54D14*
G01X28994Y2561D03*
G01X28993Y3561D03*
G01X29993Y2561D03*
G01X29993Y3561D03*
G01X30993Y2561D03*
G01X30993Y3561D03*
G01X31993Y2561D03*
G01X31993Y3561D03*
G54D12*
G01X20000Y6000D03*
G01X20000Y7000D03*
G01X20000Y8000D03*
G01X17000Y6000D03*
G01X17000Y7000D03*
G01X17000Y8000D03*
G01X14000Y6000D03*
G01X14000Y7000D03*
G01X14000Y8000D03*
G01X11000Y6000D03*
G01X11000Y7000D03*
G01X11000Y8000D03*
G54D16*
G01X11000Y2000D03*
G01X12000Y21000D03*
G01X10000Y2000D03*
G01X9000Y2000D03*
G01X8000Y2000D03*
G01X7000Y2000D03*
G01X12000Y2000D03*
G01X13000Y2000D03*
G01X14000Y2000D03*
G01X15600Y2000D03*
G01X16600Y2000D03*
G01X17600Y2000D03*
G01X18600Y2000D03*
G01X19600Y2000D03*
G01X20600Y2000D03*
G01X21600Y2000D03*
G01X22600Y2000D03*
G01X11000Y21000D03*
G01X10000Y21000D03*
G01X9000Y21000D03*
G01X8000Y21000D03*
G01X7000Y21000D03*
G01X14000Y21000D03*
G01X15000Y21000D03*
G01X16000Y21000D03*
G01X17000Y21000D03*
G01X18000Y21000D03*
G01X19000Y21000D03*
G54D17*
G01X3000Y11019D03*
G54D18*
G01X3000Y12980D03*
G54D17*
G01X3000Y5980D03*
G54D18*
G01X3000Y4019D03*
G54D12*
G01X23000Y6000D03*
G01X23000Y7000D03*
G01X23000Y8000D03*

M00*
M02*