;PTH Drill file created by EasyEDA 
M48
;Holesize 1 = 0.040 INCH
T01C0.040
;Holesize 2 = 0.047 INCH
T02C0.047
;Holesize 3 = 0.039 INCH
T03C0.039
;Holesize 4 = 0.046 INCH
T04C0.046
;Holesize 5 = 0.012 INCH
T05C0.012
INCH,00.0000
%
G05
G90
T01
X008000Y014000
X008000Y013000
X008000Y012000
X011000Y014000
X011000Y013000
X011000Y012000
X014000Y014000
X014000Y013000
X014000Y012000
X017000Y014000
X017000Y013000
X017000Y012000
X020000Y014000
X020000Y013000
X020000Y012000
X023000Y014000
X023000Y013000
X023000Y012000
X008000Y006000
X008000Y007000
X008000Y008000
X020000Y006000
X020000Y007000
X020000Y008000
X017000Y006000
X017000Y007000
X017000Y008000
X014000Y006000
X014000Y007000
X014000Y008000
X011000Y006000
X011000Y007000
X011000Y008000
X023000Y006000
X023000Y007000
X023000Y008000
T02
X028994Y002561
X028993Y003561
X029993Y002561
X029993Y003561
X030993Y002561
X030993Y003561
X031993Y002561
X031993Y003561
T03
X011000Y002000
X012000Y021000
X010000Y002000
X009000Y002000
X008000Y002000
X007000Y002000
X012000Y002000
X013000Y002000
X014000Y002000
X015600Y002000
X016600Y002000
X017600Y002000
X018600Y002000
X019600Y002000
X020600Y002000
X021600Y002000
X022600Y002000
X011000Y021000
X010000Y021000
X009000Y021000
X008000Y021000
X007000Y021000
X014000Y021000
X015000Y021000
X016000Y021000
X017000Y021000
X018000Y021000
X019000Y021000
T04
X003000Y011019
X003000Y012980
X003000Y005980
X003000Y004019
T05
X023000Y004100
M30
