G04 ---------------------------- Layer name :TOP SILK LAYER*
G04 easyEDA 0.1*
G04 Scale: 100 percent, Rotated: No, Reflected: No *
G04 Dimensions in inches *
G04 leading zeros omitted , absolute positions ,2 integer and 4 * 
%FSLAX24Y24*%
%MOIN*%
G90*
G70D02*

%ADD10C,0.010000*%
%ADD11C,0.007000*%
%ADD12C,0.006000*%

%LPD*%
G54D10*
G01X8250Y12500D02*
G01X8500Y12250D01*
G01X8500Y12250D02*
G01X8500Y11750D01*
G01X8500Y11750D02*
G01X8250Y11500D01*
G01X7750Y11500D02*
G01X7500Y11750D01*
G01X7500Y11750D02*
G01X7500Y12250D01*
G01X7500Y12250D02*
G01X7750Y12500D01*
G01X8500Y14250D02*
G01X8500Y13750D01*
G01X8500Y13750D02*
G01X8250Y13500D01*
G01X7750Y13500D02*
G01X7500Y13750D01*
G01X8250Y13500D02*
G01X8500Y13250D01*
G01X8500Y13250D02*
G01X8500Y12750D01*
G01X8500Y12750D02*
G01X8250Y12500D01*
G01X7750Y12500D02*
G01X7500Y12750D01*
G01X7500Y12750D02*
G01X7500Y13250D01*
G01X7500Y13250D02*
G01X7750Y13500D01*
G01X8250Y14500D02*
G01X7750Y14500D01*
G01X8500Y14250D02*
G01X8250Y14500D01*
G01X7750Y14500D02*
G01X7500Y14250D01*
G01X7500Y13750D02*
G01X7500Y14250D01*
G01X8250Y11500D02*
G01X7750Y11500D01*
G01X11250Y12500D02*
G01X11500Y12250D01*
G01X11500Y12250D02*
G01X11500Y11750D01*
G01X11500Y11750D02*
G01X11250Y11500D01*
G01X10750Y11500D02*
G01X10500Y11750D01*
G01X10500Y11750D02*
G01X10500Y12250D01*
G01X10500Y12250D02*
G01X10750Y12500D01*
G01X11500Y14250D02*
G01X11500Y13750D01*
G01X11500Y13750D02*
G01X11250Y13500D01*
G01X10750Y13500D02*
G01X10500Y13750D01*
G01X11250Y13500D02*
G01X11500Y13250D01*
G01X11500Y13250D02*
G01X11500Y12750D01*
G01X11500Y12750D02*
G01X11250Y12500D01*
G01X10750Y12500D02*
G01X10500Y12750D01*
G01X10500Y12750D02*
G01X10500Y13250D01*
G01X10500Y13250D02*
G01X10750Y13500D01*
G01X11250Y14500D02*
G01X10750Y14500D01*
G01X11500Y14250D02*
G01X11250Y14500D01*
G01X10750Y14500D02*
G01X10500Y14250D01*
G01X10500Y13750D02*
G01X10500Y14250D01*
G01X11250Y11500D02*
G01X10750Y11500D01*
G01X14250Y12500D02*
G01X14500Y12250D01*
G01X14500Y12250D02*
G01X14500Y11750D01*
G01X14500Y11750D02*
G01X14250Y11500D01*
G01X13750Y11500D02*
G01X13500Y11750D01*
G01X13500Y11750D02*
G01X13500Y12250D01*
G01X13500Y12250D02*
G01X13750Y12500D01*
G01X14500Y14250D02*
G01X14500Y13750D01*
G01X14500Y13750D02*
G01X14250Y13500D01*
G01X13750Y13500D02*
G01X13500Y13750D01*
G01X14250Y13500D02*
G01X14500Y13250D01*
G01X14500Y13250D02*
G01X14500Y12750D01*
G01X14500Y12750D02*
G01X14250Y12500D01*
G01X13750Y12500D02*
G01X13500Y12750D01*
G01X13500Y12750D02*
G01X13500Y13250D01*
G01X13500Y13250D02*
G01X13750Y13500D01*
G01X14250Y14500D02*
G01X13750Y14500D01*
G01X14500Y14250D02*
G01X14250Y14500D01*
G01X13750Y14500D02*
G01X13500Y14250D01*
G01X13500Y13750D02*
G01X13500Y14250D01*
G01X14250Y11500D02*
G01X13750Y11500D01*
G01X17250Y12500D02*
G01X17500Y12250D01*
G01X17500Y12250D02*
G01X17500Y11750D01*
G01X17500Y11750D02*
G01X17250Y11500D01*
G01X16750Y11500D02*
G01X16500Y11750D01*
G01X16500Y11750D02*
G01X16500Y12250D01*
G01X16500Y12250D02*
G01X16750Y12500D01*
G01X17500Y14250D02*
G01X17500Y13750D01*
G01X17500Y13750D02*
G01X17250Y13500D01*
G01X16750Y13500D02*
G01X16500Y13750D01*
G01X17250Y13500D02*
G01X17500Y13250D01*
G01X17500Y13250D02*
G01X17500Y12750D01*
G01X17500Y12750D02*
G01X17250Y12500D01*
G01X16750Y12500D02*
G01X16500Y12750D01*
G01X16500Y12750D02*
G01X16500Y13250D01*
G01X16500Y13250D02*
G01X16750Y13500D01*
G01X17250Y14500D02*
G01X16750Y14500D01*
G01X17500Y14250D02*
G01X17250Y14500D01*
G01X16750Y14500D02*
G01X16500Y14250D01*
G01X16500Y13750D02*
G01X16500Y14250D01*
G01X17250Y11500D02*
G01X16750Y11500D01*
G01X20250Y12500D02*
G01X20500Y12250D01*
G01X20500Y12250D02*
G01X20500Y11750D01*
G01X20500Y11750D02*
G01X20250Y11500D01*
G01X19750Y11500D02*
G01X19500Y11750D01*
G01X19500Y11750D02*
G01X19500Y12250D01*
G01X19500Y12250D02*
G01X19750Y12500D01*
G01X20500Y14250D02*
G01X20500Y13750D01*
G01X20500Y13750D02*
G01X20250Y13500D01*
G01X19750Y13500D02*
G01X19500Y13750D01*
G01X20250Y13500D02*
G01X20500Y13250D01*
G01X20500Y13250D02*
G01X20500Y12750D01*
G01X20500Y12750D02*
G01X20250Y12500D01*
G01X19750Y12500D02*
G01X19500Y12750D01*
G01X19500Y12750D02*
G01X19500Y13250D01*
G01X19500Y13250D02*
G01X19750Y13500D01*
G01X20250Y14500D02*
G01X19750Y14500D01*
G01X20500Y14250D02*
G01X20250Y14500D01*
G01X19750Y14500D02*
G01X19500Y14250D01*
G01X19500Y13750D02*
G01X19500Y14250D01*
G01X20250Y11500D02*
G01X19750Y11500D01*
G01X23250Y12500D02*
G01X23500Y12250D01*
G01X23500Y12250D02*
G01X23500Y11750D01*
G01X23500Y11750D02*
G01X23250Y11500D01*
G01X22750Y11500D02*
G01X22500Y11750D01*
G01X22500Y11750D02*
G01X22500Y12250D01*
G01X22500Y12250D02*
G01X22750Y12500D01*
G01X23500Y14250D02*
G01X23500Y13750D01*
G01X23500Y13750D02*
G01X23250Y13500D01*
G01X22750Y13500D02*
G01X22500Y13750D01*
G01X23250Y13500D02*
G01X23500Y13250D01*
G01X23500Y13250D02*
G01X23500Y12750D01*
G01X23500Y12750D02*
G01X23250Y12500D01*
G01X22750Y12500D02*
G01X22500Y12750D01*
G01X22500Y12750D02*
G01X22500Y13250D01*
G01X22500Y13250D02*
G01X22750Y13500D01*
G01X23250Y14500D02*
G01X22750Y14500D01*
G01X23500Y14250D02*
G01X23250Y14500D01*
G01X22750Y14500D02*
G01X22500Y14250D01*
G01X22500Y13750D02*
G01X22500Y14250D01*
G01X23250Y11500D02*
G01X22750Y11500D01*
G01X7750Y7500D02*
G01X7500Y7750D01*
G01X7500Y7750D02*
G01X7500Y8250D01*
G01X7500Y8250D02*
G01X7750Y8500D01*
G01X8250Y8500D02*
G01X8500Y8250D01*
G01X8500Y8250D02*
G01X8500Y7750D01*
G01X8500Y7750D02*
G01X8250Y7500D01*
G01X7500Y5750D02*
G01X7500Y6250D01*
G01X7500Y6250D02*
G01X7750Y6500D01*
G01X8250Y6500D02*
G01X8500Y6250D01*
G01X7750Y6500D02*
G01X7500Y6750D01*
G01X7500Y6750D02*
G01X7500Y7250D01*
G01X7500Y7250D02*
G01X7750Y7500D01*
G01X8250Y7500D02*
G01X8500Y7250D01*
G01X8500Y7250D02*
G01X8500Y6750D01*
G01X8500Y6750D02*
G01X8250Y6500D01*
G01X7750Y5500D02*
G01X8250Y5500D01*
G01X7500Y5750D02*
G01X7750Y5500D01*
G01X8250Y5500D02*
G01X8500Y5750D01*
G01X8500Y6250D02*
G01X8500Y5750D01*
G01X7750Y8500D02*
G01X8250Y8500D01*
G01X28247Y13308D02*
G01X28247Y1891D01*
G01X28247Y13308D02*
G01X34152Y13308D01*
G01X34152Y1891D02*
G01X34152Y13308D01*
G01X34156Y1891D02*
G01X28251Y1891D01*
G01X28444Y4135D02*
G01X32538Y4135D01*
G01X32538Y2088D01*
G01X28444Y2088D01*
G01X28444Y4135D01*
G01X19750Y7500D02*
G01X19500Y7750D01*
G01X19500Y7750D02*
G01X19500Y8250D01*
G01X19500Y8250D02*
G01X19750Y8500D01*
G01X20250Y8500D02*
G01X20500Y8250D01*
G01X20500Y8250D02*
G01X20500Y7750D01*
G01X20500Y7750D02*
G01X20250Y7500D01*
G01X19500Y5750D02*
G01X19500Y6250D01*
G01X19500Y6250D02*
G01X19750Y6500D01*
G01X20250Y6500D02*
G01X20500Y6250D01*
G01X19750Y6500D02*
G01X19500Y6750D01*
G01X19500Y6750D02*
G01X19500Y7250D01*
G01X19500Y7250D02*
G01X19750Y7500D01*
G01X20250Y7500D02*
G01X20500Y7250D01*
G01X20500Y7250D02*
G01X20500Y6750D01*
G01X20500Y6750D02*
G01X20250Y6500D01*
G01X19750Y5500D02*
G01X20250Y5500D01*
G01X19500Y5750D02*
G01X19750Y5500D01*
G01X20250Y5500D02*
G01X20500Y5750D01*
G01X20500Y6250D02*
G01X20500Y5750D01*
G01X19750Y8500D02*
G01X20250Y8500D01*
G01X16750Y7500D02*
G01X16500Y7750D01*
G01X16500Y7750D02*
G01X16500Y8250D01*
G01X16500Y8250D02*
G01X16750Y8500D01*
G01X17250Y8500D02*
G01X17500Y8250D01*
G01X17500Y8250D02*
G01X17500Y7750D01*
G01X17500Y7750D02*
G01X17250Y7500D01*
G01X16500Y5750D02*
G01X16500Y6250D01*
G01X16500Y6250D02*
G01X16750Y6500D01*
G01X17250Y6500D02*
G01X17500Y6250D01*
G01X16750Y6500D02*
G01X16500Y6750D01*
G01X16500Y6750D02*
G01X16500Y7250D01*
G01X16500Y7250D02*
G01X16750Y7500D01*
G01X17250Y7500D02*
G01X17500Y7250D01*
G01X17500Y7250D02*
G01X17500Y6750D01*
G01X17500Y6750D02*
G01X17250Y6500D01*
G01X16750Y5500D02*
G01X17250Y5500D01*
G01X16500Y5750D02*
G01X16750Y5500D01*
G01X17250Y5500D02*
G01X17500Y5750D01*
G01X17500Y6250D02*
G01X17500Y5750D01*
G01X16750Y8500D02*
G01X17250Y8500D01*
G01X13750Y7500D02*
G01X13500Y7750D01*
G01X13500Y7750D02*
G01X13500Y8250D01*
G01X13500Y8250D02*
G01X13750Y8500D01*
G01X14250Y8500D02*
G01X14500Y8250D01*
G01X14500Y8250D02*
G01X14500Y7750D01*
G01X14500Y7750D02*
G01X14250Y7500D01*
G01X13500Y5750D02*
G01X13500Y6250D01*
G01X13500Y6250D02*
G01X13750Y6500D01*
G01X14250Y6500D02*
G01X14500Y6250D01*
G01X13750Y6500D02*
G01X13500Y6750D01*
G01X13500Y6750D02*
G01X13500Y7250D01*
G01X13500Y7250D02*
G01X13750Y7500D01*
G01X14250Y7500D02*
G01X14500Y7250D01*
G01X14500Y7250D02*
G01X14500Y6750D01*
G01X14500Y6750D02*
G01X14250Y6500D01*
G01X13750Y5500D02*
G01X14250Y5500D01*
G01X13500Y5750D02*
G01X13750Y5500D01*
G01X14250Y5500D02*
G01X14500Y5750D01*
G01X14500Y6250D02*
G01X14500Y5750D01*
G01X13750Y8500D02*
G01X14250Y8500D01*
G01X10750Y7500D02*
G01X10500Y7750D01*
G01X10500Y7750D02*
G01X10500Y8250D01*
G01X10500Y8250D02*
G01X10750Y8500D01*
G01X11250Y8500D02*
G01X11500Y8250D01*
G01X11500Y8250D02*
G01X11500Y7750D01*
G01X11500Y7750D02*
G01X11250Y7500D01*
G01X10500Y5750D02*
G01X10500Y6250D01*
G01X10500Y6250D02*
G01X10750Y6500D01*
G01X11250Y6500D02*
G01X11500Y6250D01*
G01X10750Y6500D02*
G01X10500Y6750D01*
G01X10500Y6750D02*
G01X10500Y7250D01*
G01X10500Y7250D02*
G01X10750Y7500D01*
G01X11250Y7500D02*
G01X11500Y7250D01*
G01X11500Y7250D02*
G01X11500Y6750D01*
G01X11500Y6750D02*
G01X11250Y6500D01*
G01X10750Y5500D02*
G01X11250Y5500D01*
G01X10500Y5750D02*
G01X10750Y5500D01*
G01X11250Y5500D02*
G01X11500Y5750D01*
G01X11500Y6250D02*
G01X11500Y5750D01*
G01X10750Y8500D02*
G01X11250Y8500D01*
G01X4600Y9950D02*
G01X1400Y9950D01*
G01X1400Y14050D01*
G01X4600Y14050D01*
G01X4600Y9950D01*
G01X4000Y10050D02*
G01X2000Y10050D01*
G01X2000Y13950D01*
G01X4000Y13950D01*
G01X4000Y10050D01*
G01X1400Y7050D02*
G01X4600Y7050D01*
G01X4600Y2950D01*
G01X1400Y2950D01*
G01X1400Y7050D01*
G01X2000Y6950D02*
G01X4000Y6950D01*
G01X4000Y3050D01*
G01X2000Y3050D01*
G01X2000Y6950D01*
G01X22750Y7500D02*
G01X22500Y7750D01*
G01X22500Y7750D02*
G01X22500Y8250D01*
G01X22500Y8250D02*
G01X22750Y8500D01*
G01X23250Y8500D02*
G01X23500Y8250D01*
G01X23500Y8250D02*
G01X23500Y7750D01*
G01X23500Y7750D02*
G01X23250Y7500D01*
G01X22500Y5750D02*
G01X22500Y6250D01*
G01X22500Y6250D02*
G01X22750Y6500D01*
G01X23250Y6500D02*
G01X23500Y6250D01*
G01X22750Y6500D02*
G01X22500Y6750D01*
G01X22500Y6750D02*
G01X22500Y7250D01*
G01X22500Y7250D02*
G01X22750Y7500D01*
G01X23250Y7500D02*
G01X23500Y7250D01*
G01X23500Y7250D02*
G01X23500Y6750D01*
G01X23500Y6750D02*
G01X23250Y6500D01*
G01X22750Y5500D02*
G01X23250Y5500D01*
G01X22500Y5750D02*
G01X22750Y5500D01*
G01X23250Y5500D02*
G01X23500Y5750D01*
G01X23500Y6250D02*
G01X23500Y5750D01*
G01X22750Y8500D02*
G01X23250Y8500D01*
G54D11*
G01X8815Y13286D02*
G01X8775Y13244D01*
G01X8755Y13184D01*
G01X8755Y13101D01*
G01X8775Y13040D01*
G01X8815Y13000D01*
G01X8856Y13000D01*
G01X8897Y13019D01*
G01X8918Y13040D01*
G01X8939Y13082D01*
G01X8980Y13205D01*
G01X9000Y13244D01*
G01X9019Y13265D01*
G01X9060Y13286D01*
G01X9122Y13286D01*
G01X9164Y13244D01*
G01X9184Y13184D01*
G01X9184Y13101D01*
G01X9164Y13040D01*
G01X9122Y13000D01*
G01X8755Y13584D02*
G01X9184Y13421D01*
G01X8755Y13584D02*
G01X9184Y13748D01*
G01X9040Y13482D02*
G01X9040Y13686D01*
G01X8755Y13884D02*
G01X9184Y13884D01*
G01X8755Y14019D02*
G01X9184Y14019D01*
G01X9184Y14019D02*
G01X9184Y14263D01*
G01X8856Y14705D02*
G01X8815Y14684D01*
G01X8775Y14644D01*
G01X8755Y14603D01*
G01X8755Y14521D01*
G01X8775Y14480D01*
G01X8815Y14440D01*
G01X8856Y14419D01*
G01X8918Y14398D01*
G01X9019Y14398D01*
G01X9081Y14419D01*
G01X9122Y14440D01*
G01X9164Y14480D01*
G01X9184Y14521D01*
G01X9184Y14603D01*
G01X9164Y14644D01*
G01X9122Y14684D01*
G01X9081Y14705D01*
G01X9019Y14705D01*
G01X9019Y14603D02*
G01X9019Y14705D01*
G01X11815Y13286D02*
G01X11775Y13244D01*
G01X11755Y13184D01*
G01X11755Y13101D01*
G01X11775Y13040D01*
G01X11815Y13000D01*
G01X11856Y13000D01*
G01X11897Y13019D01*
G01X11918Y13040D01*
G01X11939Y13082D01*
G01X11980Y13205D01*
G01X12000Y13244D01*
G01X12019Y13265D01*
G01X12060Y13286D01*
G01X12122Y13286D01*
G01X12164Y13244D01*
G01X12184Y13184D01*
G01X12184Y13101D01*
G01X12164Y13040D01*
G01X12122Y13000D01*
G01X11755Y13584D02*
G01X12184Y13421D01*
G01X11755Y13584D02*
G01X12184Y13748D01*
G01X12040Y13482D02*
G01X12040Y13686D01*
G01X11755Y13884D02*
G01X12184Y13884D01*
G01X11755Y14019D02*
G01X12184Y14019D01*
G01X12184Y14019D02*
G01X12184Y14263D01*
G01X11755Y14398D02*
G01X12184Y14398D01*
G01X11755Y14398D02*
G01X11755Y14542D01*
G01X11775Y14603D01*
G01X11815Y14644D01*
G01X11856Y14665D01*
G01X11918Y14684D01*
G01X12019Y14684D01*
G01X12081Y14665D01*
G01X12122Y14644D01*
G01X12164Y14603D01*
G01X12184Y14542D01*
G01X12184Y14398D01*
G01X15015Y13486D02*
G01X14975Y13444D01*
G01X14955Y13384D01*
G01X14955Y13301D01*
G01X14975Y13240D01*
G01X15015Y13200D01*
G01X15056Y13200D01*
G01X15097Y13219D01*
G01X15118Y13240D01*
G01X15139Y13282D01*
G01X15180Y13405D01*
G01X15200Y13444D01*
G01X15219Y13465D01*
G01X15260Y13486D01*
G01X15322Y13486D01*
G01X15364Y13444D01*
G01X15384Y13384D01*
G01X15384Y13301D01*
G01X15364Y13240D01*
G01X15322Y13200D01*
G01X14955Y13784D02*
G01X15384Y13621D01*
G01X14955Y13784D02*
G01X15384Y13948D01*
G01X15240Y13682D02*
G01X15240Y13886D01*
G01X14955Y14084D02*
G01X15384Y14084D01*
G01X14955Y14219D02*
G01X15384Y14219D01*
G01X14955Y14219D02*
G01X14955Y14361D01*
G01X14975Y14423D01*
G01X15015Y14463D01*
G01X15056Y14484D01*
G01X15118Y14505D01*
G01X15219Y14505D01*
G01X15281Y14484D01*
G01X15322Y14463D01*
G01X15364Y14423D01*
G01X15384Y14361D01*
G01X15384Y14219D01*
G01X15056Y14946D02*
G01X15015Y14926D01*
G01X14975Y14884D01*
G01X14955Y14844D01*
G01X14955Y14763D01*
G01X14975Y14721D01*
G01X15015Y14680D01*
G01X15056Y14659D01*
G01X15118Y14640D01*
G01X15219Y14640D01*
G01X15281Y14659D01*
G01X15322Y14680D01*
G01X15364Y14721D01*
G01X15384Y14763D01*
G01X15384Y14844D01*
G01X15364Y14884D01*
G01X15322Y14926D01*
G01X15281Y14946D01*
G01X15219Y14946D01*
G01X15219Y14844D02*
G01X15219Y14946D01*
G01X17815Y13286D02*
G01X17775Y13244D01*
G01X17755Y13184D01*
G01X17755Y13101D01*
G01X17775Y13040D01*
G01X17815Y13000D01*
G01X17856Y13000D01*
G01X17897Y13019D01*
G01X17918Y13040D01*
G01X17939Y13082D01*
G01X17980Y13205D01*
G01X18000Y13244D01*
G01X18019Y13265D01*
G01X18060Y13286D01*
G01X18122Y13286D01*
G01X18164Y13244D01*
G01X18184Y13184D01*
G01X18184Y13101D01*
G01X18164Y13040D01*
G01X18122Y13000D01*
G01X17755Y13584D02*
G01X18184Y13421D01*
G01X17755Y13584D02*
G01X18184Y13748D01*
G01X18040Y13482D02*
G01X18040Y13686D01*
G01X17755Y13884D02*
G01X18184Y13884D01*
G01X17755Y14019D02*
G01X18184Y14019D01*
G01X17755Y14019D02*
G01X17755Y14161D01*
G01X17775Y14223D01*
G01X17815Y14263D01*
G01X17856Y14284D01*
G01X17918Y14305D01*
G01X18019Y14305D01*
G01X18081Y14284D01*
G01X18122Y14263D01*
G01X18164Y14223D01*
G01X18184Y14161D01*
G01X18184Y14019D01*
G01X17755Y14440D02*
G01X18184Y14440D01*
G01X17755Y14440D02*
G01X17755Y14582D01*
G01X17775Y14644D01*
G01X17815Y14684D01*
G01X17856Y14705D01*
G01X17918Y14726D01*
G01X18019Y14726D01*
G01X18081Y14705D01*
G01X18122Y14684D01*
G01X18164Y14644D01*
G01X18184Y14582D01*
G01X18184Y14440D01*
G01X20815Y13286D02*
G01X20775Y13244D01*
G01X20755Y13184D01*
G01X20755Y13101D01*
G01X20775Y13040D01*
G01X20815Y13000D01*
G01X20856Y13000D01*
G01X20897Y13019D01*
G01X20918Y13040D01*
G01X20939Y13082D01*
G01X20980Y13205D01*
G01X21000Y13244D01*
G01X21019Y13265D01*
G01X21060Y13286D01*
G01X21122Y13286D01*
G01X21164Y13244D01*
G01X21184Y13184D01*
G01X21184Y13101D01*
G01X21164Y13040D01*
G01X21122Y13000D01*
G01X20755Y13565D02*
G01X21184Y13565D01*
G01X20755Y13421D02*
G01X20755Y13707D01*
G01X20755Y14005D02*
G01X21184Y13842D01*
G01X20755Y14005D02*
G01X21184Y14169D01*
G01X21040Y13903D02*
G01X21040Y14109D01*
G01X20755Y14305D02*
G01X21184Y14305D01*
G01X20755Y14305D02*
G01X21184Y14590D01*
G01X20755Y14590D02*
G01X21184Y14590D01*
G01X20856Y15032D02*
G01X20815Y15013D01*
G01X20775Y14971D01*
G01X20755Y14930D01*
G01X20755Y14848D01*
G01X20775Y14807D01*
G01X20815Y14767D01*
G01X20856Y14746D01*
G01X20918Y14726D01*
G01X21019Y14726D01*
G01X21081Y14746D01*
G01X21122Y14767D01*
G01X21164Y14807D01*
G01X21184Y14848D01*
G01X21184Y14930D01*
G01X21164Y14971D01*
G01X21122Y15013D01*
G01X21081Y15032D01*
G01X21019Y15032D01*
G01X21019Y14930D02*
G01X21019Y15032D01*
G01X20856Y15475D02*
G01X20815Y15455D01*
G01X20775Y15413D01*
G01X20755Y15373D01*
G01X20755Y15290D01*
G01X20775Y15250D01*
G01X20815Y15209D01*
G01X20856Y15188D01*
G01X20918Y15167D01*
G01X21019Y15167D01*
G01X21081Y15188D01*
G01X21122Y15209D01*
G01X21164Y15250D01*
G01X21184Y15290D01*
G01X21184Y15373D01*
G01X21164Y15413D01*
G01X21122Y15455D01*
G01X21081Y15475D01*
G01X21019Y15475D01*
G01X21019Y15373D02*
G01X21019Y15475D01*
G01X23761Y14030D02*
G01X23720Y13990D01*
G01X23700Y13928D01*
G01X23700Y13846D01*
G01X23720Y13786D01*
G01X23761Y13744D01*
G01X23802Y13744D01*
G01X23843Y13765D01*
G01X23863Y13786D01*
G01X23884Y13826D01*
G01X23925Y13950D01*
G01X23945Y13990D01*
G01X23965Y14011D01*
G01X24006Y14030D01*
G01X24068Y14030D01*
G01X24109Y13990D01*
G01X24129Y13928D01*
G01X24129Y13846D01*
G01X24109Y13786D01*
G01X24068Y13744D01*
G01X23700Y14309D02*
G01X24129Y14309D01*
G01X23700Y14165D02*
G01X23700Y14453D01*
G01X23700Y14751D02*
G01X24129Y14588D01*
G01X23700Y14751D02*
G01X24129Y14915D01*
G01X23986Y14648D02*
G01X23986Y14853D01*
G01X23700Y15050D02*
G01X24129Y15050D01*
G01X23700Y15050D02*
G01X24129Y15336D01*
G01X23700Y15336D02*
G01X24129Y15336D01*
G01X23802Y15778D02*
G01X23761Y15757D01*
G01X23720Y15717D01*
G01X23700Y15676D01*
G01X23700Y15594D01*
G01X23720Y15553D01*
G01X23761Y15511D01*
G01X23802Y15492D01*
G01X23863Y15471D01*
G01X23965Y15471D01*
G01X24027Y15492D01*
G01X24068Y15511D01*
G01X24109Y15553D01*
G01X24129Y15594D01*
G01X24129Y15676D01*
G01X24109Y15717D01*
G01X24068Y15757D01*
G01X24027Y15778D01*
G01X23965Y15778D01*
G01X23965Y15676D02*
G01X23965Y15778D01*
G01X23700Y15913D02*
G01X24129Y15913D01*
G01X23700Y15913D02*
G01X23700Y16055D01*
G01X23720Y16117D01*
G01X23761Y16159D01*
G01X23802Y16178D01*
G01X23863Y16200D01*
G01X23965Y16200D01*
G01X24027Y16178D01*
G01X24068Y16159D01*
G01X24109Y16117D01*
G01X24129Y16055D01*
G01X24129Y15913D01*
G01X6815Y7286D02*
G01X6775Y7244D01*
G01X6755Y7184D01*
G01X6755Y7101D01*
G01X6775Y7040D01*
G01X6815Y7000D01*
G01X6856Y7000D01*
G01X6897Y7019D01*
G01X6918Y7040D01*
G01X6939Y7082D01*
G01X6980Y7205D01*
G01X7000Y7244D01*
G01X7019Y7265D01*
G01X7060Y7286D01*
G01X7122Y7286D01*
G01X7164Y7244D01*
G01X7184Y7184D01*
G01X7184Y7101D01*
G01X7164Y7040D01*
G01X7122Y7000D01*
G01X6755Y7421D02*
G01X7184Y7421D01*
G01X7184Y7421D02*
G01X7184Y7667D01*
G01X6755Y7965D02*
G01X7184Y7801D01*
G01X6755Y7965D02*
G01X7184Y8128D01*
G01X7040Y7863D02*
G01X7040Y8067D01*
G01X6856Y8571D02*
G01X6815Y8550D01*
G01X6775Y8509D01*
G01X6755Y8469D01*
G01X6755Y8386D01*
G01X6775Y8346D01*
G01X6815Y8305D01*
G01X6856Y8284D01*
G01X6918Y8263D01*
G01X7019Y8263D01*
G01X7081Y8284D01*
G01X7122Y8305D01*
G01X7164Y8346D01*
G01X7184Y8386D01*
G01X7184Y8469D01*
G01X7164Y8509D01*
G01X7122Y8550D01*
G01X7081Y8571D01*
G01X6755Y8705D02*
G01X7184Y8705D01*
G01X6755Y8705D02*
G01X6755Y8971D01*
G01X6959Y8705D02*
G01X6959Y8869D01*
G01X7184Y8705D02*
G01X7184Y8971D01*
G01X6755Y9250D02*
G01X7184Y9250D01*
G01X6755Y9107D02*
G01X6755Y9392D01*
G01X31202Y14053D02*
G01X31202Y13625D01*
G01X31202Y14053D02*
G01X31365Y13625D01*
G01X31528Y14053D02*
G01X31365Y13625D01*
G01X31528Y14053D02*
G01X31528Y13625D01*
G01X31664Y14053D02*
G01X31664Y13625D01*
G01X31951Y14053D02*
G01X31664Y13767D01*
G01X31767Y13869D02*
G01X31951Y13625D01*
G01X32085Y13971D02*
G01X32127Y13992D01*
G01X32188Y14053D01*
G01X32188Y13625D01*
G01X18755Y7000D02*
G01X19184Y7000D01*
G01X18755Y7000D02*
G01X19184Y7163D01*
G01X18755Y7326D02*
G01X19184Y7163D01*
G01X18755Y7326D02*
G01X19184Y7326D01*
G01X18755Y7584D02*
G01X18775Y7544D01*
G01X18815Y7503D01*
G01X18856Y7482D01*
G01X18918Y7461D01*
G01X19019Y7461D01*
G01X19081Y7482D01*
G01X19122Y7503D01*
G01X19164Y7544D01*
G01X19184Y7584D01*
G01X19184Y7667D01*
G01X19164Y7707D01*
G01X19122Y7748D01*
G01X19081Y7769D01*
G01X19019Y7790D01*
G01X18918Y7790D01*
G01X18856Y7769D01*
G01X18815Y7748D01*
G01X18775Y7707D01*
G01X18755Y7667D01*
G01X18755Y7584D01*
G01X18755Y8067D02*
G01X19184Y8067D01*
G01X18755Y7925D02*
G01X18755Y8211D01*
G01X18856Y8653D02*
G01X18815Y8632D01*
G01X18775Y8590D01*
G01X18755Y8550D01*
G01X18755Y8469D01*
G01X18775Y8428D01*
G01X18815Y8386D01*
G01X18856Y8365D01*
G01X18918Y8346D01*
G01X19019Y8346D01*
G01X19081Y8365D01*
G01X19122Y8386D01*
G01X19164Y8428D01*
G01X19184Y8469D01*
G01X19184Y8550D01*
G01X19164Y8590D01*
G01X19122Y8632D01*
G01X19081Y8653D01*
G01X19019Y8653D01*
G01X19019Y8550D02*
G01X19019Y8653D01*
G01X18755Y8788D02*
G01X19184Y8788D01*
G01X18755Y8788D02*
G01X18755Y9053D01*
G01X18959Y8788D02*
G01X18959Y8951D01*
G01X19184Y8788D02*
G01X19184Y9053D01*
G01X18755Y9188D02*
G01X19184Y9475D01*
G01X18755Y9475D02*
G01X19184Y9188D01*
G01X18755Y9753D02*
G01X19184Y9753D01*
G01X18755Y9609D02*
G01X18755Y9896D01*
G01X15755Y7000D02*
G01X16184Y7000D01*
G01X15755Y7000D02*
G01X16184Y7163D01*
G01X15755Y7326D02*
G01X16184Y7163D01*
G01X15755Y7326D02*
G01X16184Y7326D01*
G01X15755Y7584D02*
G01X15775Y7544D01*
G01X15815Y7503D01*
G01X15856Y7482D01*
G01X15918Y7461D01*
G01X16019Y7461D01*
G01X16081Y7482D01*
G01X16122Y7503D01*
G01X16164Y7544D01*
G01X16184Y7584D01*
G01X16184Y7667D01*
G01X16164Y7707D01*
G01X16122Y7748D01*
G01X16081Y7769D01*
G01X16019Y7790D01*
G01X15918Y7790D01*
G01X15856Y7769D01*
G01X15815Y7748D01*
G01X15775Y7707D01*
G01X15755Y7667D01*
G01X15755Y7584D01*
G01X15755Y8067D02*
G01X16184Y8067D01*
G01X15755Y7925D02*
G01X15755Y8211D01*
G01X15856Y8653D02*
G01X15815Y8632D01*
G01X15775Y8590D01*
G01X15755Y8550D01*
G01X15755Y8469D01*
G01X15775Y8428D01*
G01X15815Y8386D01*
G01X15856Y8365D01*
G01X15918Y8346D01*
G01X16019Y8346D01*
G01X16081Y8365D01*
G01X16122Y8386D01*
G01X16164Y8428D01*
G01X16184Y8469D01*
G01X16184Y8550D01*
G01X16164Y8590D01*
G01X16122Y8632D01*
G01X16081Y8653D01*
G01X16019Y8653D01*
G01X16019Y8550D02*
G01X16019Y8653D01*
G01X15755Y8788D02*
G01X16184Y8788D01*
G01X15755Y8923D02*
G01X16184Y8923D01*
G01X15755Y8923D02*
G01X16184Y9209D01*
G01X15755Y9209D02*
G01X16184Y9209D01*
G01X15755Y9486D02*
G01X16184Y9486D01*
G01X15755Y9344D02*
G01X15755Y9630D01*
G01X12755Y7000D02*
G01X13184Y7000D01*
G01X12755Y7000D02*
G01X13184Y7163D01*
G01X12755Y7326D02*
G01X13184Y7163D01*
G01X12755Y7326D02*
G01X13184Y7326D01*
G01X12755Y7584D02*
G01X12775Y7544D01*
G01X12815Y7503D01*
G01X12856Y7482D01*
G01X12918Y7461D01*
G01X13019Y7461D01*
G01X13081Y7482D01*
G01X13122Y7503D01*
G01X13164Y7544D01*
G01X13184Y7584D01*
G01X13184Y7667D01*
G01X13164Y7707D01*
G01X13122Y7748D01*
G01X13081Y7769D01*
G01X13019Y7790D01*
G01X12918Y7790D01*
G01X12856Y7769D01*
G01X12815Y7748D01*
G01X12775Y7707D01*
G01X12755Y7667D01*
G01X12755Y7584D01*
G01X12755Y8067D02*
G01X13184Y8067D01*
G01X12755Y7925D02*
G01X12755Y8211D01*
G01X12755Y8346D02*
G01X13184Y8346D01*
G01X12755Y8346D02*
G01X12755Y8488D01*
G01X12775Y8550D01*
G01X12815Y8590D01*
G01X12856Y8611D01*
G01X12918Y8632D01*
G01X13019Y8632D01*
G01X13081Y8611D01*
G01X13122Y8590D01*
G01X13164Y8550D01*
G01X13184Y8488D01*
G01X13184Y8346D01*
G01X12755Y8767D02*
G01X13184Y8767D01*
G01X12755Y8901D02*
G01X13184Y8901D01*
G01X12755Y8901D02*
G01X13184Y9188D01*
G01X12755Y9188D02*
G01X13184Y9188D01*
G01X12755Y9467D02*
G01X13184Y9467D01*
G01X12755Y9323D02*
G01X12755Y9609D01*
G01X9755Y7000D02*
G01X10184Y7000D01*
G01X9755Y7000D02*
G01X10184Y7163D01*
G01X9755Y7326D02*
G01X10184Y7163D01*
G01X9755Y7326D02*
G01X10184Y7326D01*
G01X9755Y7584D02*
G01X9775Y7544D01*
G01X9815Y7503D01*
G01X9856Y7482D01*
G01X9918Y7461D01*
G01X10019Y7461D01*
G01X10081Y7482D01*
G01X10122Y7503D01*
G01X10164Y7544D01*
G01X10184Y7584D01*
G01X10184Y7667D01*
G01X10164Y7707D01*
G01X10122Y7748D01*
G01X10081Y7769D01*
G01X10019Y7790D01*
G01X9918Y7790D01*
G01X9856Y7769D01*
G01X9815Y7748D01*
G01X9775Y7707D01*
G01X9755Y7667D01*
G01X9755Y7584D01*
G01X9755Y8067D02*
G01X10184Y8067D01*
G01X9755Y7925D02*
G01X9755Y8211D01*
G01X9755Y8346D02*
G01X10184Y8346D01*
G01X9755Y8346D02*
G01X9755Y8488D01*
G01X9775Y8550D01*
G01X9815Y8590D01*
G01X9856Y8611D01*
G01X9918Y8632D01*
G01X10019Y8632D01*
G01X10081Y8611D01*
G01X10122Y8590D01*
G01X10164Y8550D01*
G01X10184Y8488D01*
G01X10184Y8346D01*
G01X9755Y8767D02*
G01X10184Y8767D01*
G01X9755Y8767D02*
G01X9755Y9032D01*
G01X9959Y8767D02*
G01X9959Y8930D01*
G01X10184Y8767D02*
G01X10184Y9032D01*
G01X9755Y9167D02*
G01X10184Y9455D01*
G01X9755Y9455D02*
G01X10184Y9167D01*
G01X9755Y9732D02*
G01X10184Y9732D01*
G01X9755Y9590D02*
G01X9755Y9876D01*
G01X19800Y744D02*
G01X19800Y438D01*
G01X19819Y376D01*
G01X19860Y336D01*
G01X19922Y315D01*
G01X19964Y315D01*
G01X20025Y336D01*
G01X20065Y376D01*
G01X20085Y438D01*
G01X20085Y744D01*
G01X20426Y744D02*
G01X20221Y459D01*
G01X20527Y459D01*
G01X20426Y744D02*
G01X20426Y315D01*
G54D12*
G01X19700Y20390D02*
G01X19700Y20582D01*
G01X19700Y20390D02*
G01X19618Y20390D01*
G01X19590Y20400D01*
G01X19581Y20409D01*
G01X19572Y20427D01*
G01X19572Y20444D01*
G01X19581Y20463D01*
G01X19590Y20473D01*
G01X19618Y20482D01*
G01X19700Y20482D01*
G01X19635Y20482D02*
G01X19572Y20582D01*
G01X19385Y20417D02*
G01X19403Y20400D01*
G01X19431Y20390D01*
G01X19467Y20390D01*
G01X19494Y20400D01*
G01X19513Y20417D01*
G01X19513Y20436D01*
G01X19503Y20455D01*
G01X19494Y20463D01*
G01X19476Y20473D01*
G01X19422Y20490D01*
G01X19403Y20500D01*
G01X19394Y20509D01*
G01X19385Y20527D01*
G01X19385Y20555D01*
G01X19403Y20573D01*
G01X19431Y20582D01*
G01X19467Y20582D01*
G01X19494Y20573D01*
G01X19513Y20555D01*
G01X19261Y20390D02*
G01X19261Y20582D01*
G01X19325Y20390D02*
G01X19197Y20390D01*
G01X18302Y20390D02*
G01X18202Y20390D01*
G01X18256Y20463D01*
G01X18228Y20463D01*
G01X18210Y20473D01*
G01X18202Y20482D01*
G01X18193Y20509D01*
G01X18193Y20527D01*
G01X18202Y20555D01*
G01X18219Y20573D01*
G01X18247Y20582D01*
G01X18275Y20582D01*
G01X18302Y20573D01*
G01X18310Y20563D01*
G01X18319Y20544D01*
G01X18132Y20455D02*
G01X18077Y20582D01*
G01X18023Y20455D02*
G01X18077Y20582D01*
G01X17110Y20390D02*
G01X17202Y20390D01*
G01X17210Y20473D01*
G01X17202Y20463D01*
G01X17175Y20455D01*
G01X17147Y20455D01*
G01X17119Y20463D01*
G01X17102Y20482D01*
G01X17093Y20509D01*
G01X17093Y20527D01*
G01X17102Y20555D01*
G01X17119Y20573D01*
G01X17147Y20582D01*
G01X17175Y20582D01*
G01X17202Y20573D01*
G01X17210Y20563D01*
G01X17219Y20544D01*
G01X17032Y20455D02*
G01X16977Y20582D01*
G01X16923Y20455D02*
G01X16977Y20582D01*
G01X15814Y20436D02*
G01X15822Y20417D01*
G01X15840Y20400D01*
G01X15859Y20390D01*
G01X15894Y20390D01*
G01X15914Y20400D01*
G01X15931Y20417D01*
G01X15940Y20436D01*
G01X15950Y20463D01*
G01X15950Y20509D01*
G01X15940Y20536D01*
G01X15931Y20555D01*
G01X15914Y20573D01*
G01X15894Y20582D01*
G01X15859Y20582D01*
G01X15840Y20573D01*
G01X15822Y20555D01*
G01X15814Y20536D01*
G01X15814Y20509D01*
G01X15859Y20509D02*
G01X15814Y20509D01*
G01X15753Y20455D02*
G01X15753Y20582D01*
G01X15753Y20490D02*
G01X15726Y20463D01*
G01X15707Y20455D01*
G01X15681Y20455D01*
G01X15663Y20463D01*
G01X15653Y20490D01*
G01X15653Y20582D01*
G01X15485Y20390D02*
G01X15485Y20582D01*
G01X15485Y20482D02*
G01X15502Y20463D01*
G01X15521Y20455D01*
G01X15547Y20455D01*
G01X15565Y20463D01*
G01X15585Y20482D01*
G01X15593Y20509D01*
G01X15593Y20527D01*
G01X15585Y20555D01*
G01X15565Y20573D01*
G01X15547Y20582D01*
G01X15521Y20582D01*
G01X15502Y20573D01*
G01X15485Y20555D01*
G01X14369Y20390D02*
G01X14297Y20582D01*
G01X14225Y20390D02*
G01X14297Y20582D01*
G01X14164Y20390D02*
G01X14155Y20400D01*
G01X14146Y20390D01*
G01X14155Y20382D01*
G01X14164Y20390D01*
G01X14155Y20455D02*
G01X14155Y20582D01*
G01X14085Y20455D02*
G01X14085Y20582D01*
G01X14085Y20490D02*
G01X14059Y20463D01*
G01X14040Y20455D01*
G01X14014Y20455D01*
G01X13994Y20463D01*
G01X13985Y20490D01*
G01X13985Y20582D01*
G01X10627Y21711D02*
G01X10700Y21902D01*
G01X10627Y21711D02*
G01X10555Y21902D01*
G01X10672Y21838D02*
G01X10581Y21838D01*
G01X10494Y21775D02*
G01X10494Y21902D01*
G01X10494Y21811D02*
G01X10467Y21784D01*
G01X10448Y21775D01*
G01X10422Y21775D01*
G01X10403Y21784D01*
G01X10394Y21811D01*
G01X10394Y21902D01*
G01X10225Y21775D02*
G01X10225Y21902D01*
G01X10225Y21802D02*
G01X10243Y21784D01*
G01X10261Y21775D01*
G01X10289Y21775D01*
G01X10306Y21784D01*
G01X10325Y21802D01*
G01X10335Y21828D01*
G01X10335Y21846D01*
G01X10325Y21875D01*
G01X10306Y21892D01*
G01X10289Y21902D01*
G01X10261Y21902D01*
G01X10243Y21892D01*
G01X10225Y21875D01*
G01X10164Y21711D02*
G01X10164Y21902D01*
G01X10060Y21775D02*
G01X10077Y21784D01*
G01X10096Y21802D01*
G01X10105Y21828D01*
G01X10105Y21846D01*
G01X10096Y21875D01*
G01X10077Y21892D01*
G01X10060Y21902D01*
G01X10032Y21902D01*
G01X10014Y21892D01*
G01X9996Y21875D01*
G01X9986Y21846D01*
G01X9986Y21828D01*
G01X9996Y21802D01*
G01X10014Y21784D01*
G01X10032Y21775D01*
G01X10060Y21775D01*
G01X9818Y21775D02*
G01X9818Y21919D01*
G01X9827Y21946D01*
G01X9835Y21955D01*
G01X9855Y21965D01*
G01X9881Y21965D01*
G01X9900Y21955D01*
G01X9818Y21802D02*
G01X9835Y21784D01*
G01X9855Y21775D01*
G01X9881Y21775D01*
G01X9900Y21784D01*
G01X9918Y21802D01*
G01X9927Y21828D01*
G01X9927Y21846D01*
G01X9918Y21875D01*
G01X9900Y21892D01*
G01X9881Y21902D01*
G01X9855Y21902D01*
G01X9835Y21892D01*
G01X9818Y21875D01*
G01X9618Y21711D02*
G01X9618Y21902D01*
G01X9557Y21775D02*
G01X9557Y21902D01*
G01X9557Y21811D02*
G01X9531Y21784D01*
G01X9513Y21775D01*
G01X9485Y21775D01*
G01X9467Y21784D01*
G01X9457Y21811D01*
G01X9457Y21902D01*
G01X12094Y20390D02*
G01X12122Y20400D01*
G01X12140Y20427D01*
G01X12150Y20473D01*
G01X12150Y20500D01*
G01X12140Y20544D01*
G01X12122Y20573D01*
G01X12094Y20582D01*
G01X12077Y20582D01*
G01X12050Y20573D01*
G01X12031Y20544D01*
G01X12022Y20500D01*
G01X12022Y20473D01*
G01X12031Y20427D01*
G01X12050Y20400D01*
G01X12077Y20390D01*
G01X12094Y20390D01*
G01X11150Y20427D02*
G01X11131Y20417D01*
G01X11105Y20390D01*
G01X11105Y20582D01*
G01X10140Y20436D02*
G01X10140Y20427D01*
G01X10131Y20409D01*
G01X10122Y20400D01*
G01X10105Y20390D01*
G01X10068Y20390D01*
G01X10050Y20400D01*
G01X10040Y20409D01*
G01X10031Y20427D01*
G01X10031Y20444D01*
G01X10040Y20463D01*
G01X10059Y20490D01*
G01X10150Y20582D01*
G01X10022Y20582D01*
G01X9131Y20390D02*
G01X9031Y20390D01*
G01X9085Y20463D01*
G01X9059Y20463D01*
G01X9040Y20473D01*
G01X9031Y20482D01*
G01X9022Y20509D01*
G01X9022Y20527D01*
G01X9031Y20555D01*
G01X9050Y20573D01*
G01X9077Y20582D01*
G01X9105Y20582D01*
G01X9131Y20573D01*
G01X9140Y20563D01*
G01X9150Y20544D01*
G01X8059Y20390D02*
G01X8150Y20517D01*
G01X8014Y20517D01*
G01X8059Y20390D02*
G01X8059Y20582D01*
G01X7040Y20390D02*
G01X7131Y20390D01*
G01X7140Y20473D01*
G01X7131Y20463D01*
G01X7105Y20455D01*
G01X7077Y20455D01*
G01X7050Y20463D01*
G01X7031Y20482D01*
G01X7022Y20509D01*
G01X7022Y20527D01*
G01X7031Y20555D01*
G01X7050Y20573D01*
G01X7077Y20582D01*
G01X7105Y20582D01*
G01X7131Y20573D01*
G01X7140Y20563D01*
G01X7150Y20544D01*
G01X22177Y2390D02*
G01X22250Y2582D01*
G01X22177Y2390D02*
G01X22105Y2582D01*
G01X22222Y2517D02*
G01X22131Y2517D01*
G01X22044Y2390D02*
G01X22044Y2582D01*
G01X22044Y2390D02*
G01X21963Y2390D01*
G01X21935Y2400D01*
G01X21926Y2409D01*
G01X21917Y2426D01*
G01X21917Y2444D01*
G01X21926Y2463D01*
G01X21935Y2473D01*
G01X21963Y2482D01*
G01X22044Y2482D01*
G01X21981Y2482D02*
G01X21917Y2582D01*
G01X21856Y2509D02*
G01X21747Y2509D01*
G01X21747Y2490D01*
G01X21756Y2473D01*
G01X21765Y2463D01*
G01X21785Y2455D01*
G01X21811Y2455D01*
G01X21830Y2463D01*
G01X21847Y2482D01*
G01X21856Y2509D01*
G01X21856Y2526D01*
G01X21847Y2555D01*
G01X21830Y2573D01*
G01X21811Y2582D01*
G01X21785Y2582D01*
G01X21765Y2573D01*
G01X21747Y2555D01*
G01X21614Y2390D02*
G01X21634Y2390D01*
G01X21652Y2400D01*
G01X21660Y2426D01*
G01X21660Y2582D01*
G01X21688Y2455D02*
G01X21625Y2455D01*
G01X20890Y2455D02*
G01X20890Y2600D01*
G01X20900Y2626D01*
G01X20909Y2636D01*
G01X20927Y2644D01*
G01X20955Y2644D01*
G01X20972Y2636D01*
G01X20890Y2482D02*
G01X20909Y2463D01*
G01X20927Y2455D01*
G01X20955Y2455D01*
G01X20972Y2463D01*
G01X20990Y2482D01*
G01X21000Y2509D01*
G01X21000Y2526D01*
G01X20990Y2555D01*
G01X20972Y2573D01*
G01X20955Y2582D01*
G01X20927Y2582D01*
G01X20909Y2573D01*
G01X20890Y2555D01*
G01X20831Y2455D02*
G01X20831Y2582D01*
G01X20831Y2490D02*
G01X20803Y2463D01*
G01X20785Y2455D01*
G01X20757Y2455D01*
G01X20739Y2463D01*
G01X20731Y2490D01*
G01X20731Y2582D01*
G01X20561Y2390D02*
G01X20561Y2582D01*
G01X20561Y2482D02*
G01X20580Y2463D01*
G01X20597Y2455D01*
G01X20625Y2455D01*
G01X20643Y2463D01*
G01X20661Y2482D01*
G01X20671Y2509D01*
G01X20671Y2526D01*
G01X20661Y2555D01*
G01X20643Y2573D01*
G01X20625Y2582D01*
G01X20597Y2582D01*
G01X20580Y2573D01*
G01X20561Y2555D01*
G01X20150Y2426D02*
G01X20131Y2417D01*
G01X20105Y2390D01*
G01X20105Y2582D01*
G01X20026Y2390D02*
G01X19926Y2390D01*
G01X19981Y2463D01*
G01X19953Y2463D01*
G01X19935Y2473D01*
G01X19926Y2482D01*
G01X19917Y2509D01*
G01X19917Y2526D01*
G01X19926Y2555D01*
G01X19944Y2573D01*
G01X19972Y2582D01*
G01X19998Y2582D01*
G01X20026Y2573D01*
G01X20035Y2563D01*
G01X20044Y2544D01*
G01X19150Y2426D02*
G01X19131Y2417D01*
G01X19105Y2390D01*
G01X19105Y2582D01*
G01X19035Y2436D02*
G01X19035Y2426D01*
G01X19026Y2409D01*
G01X19017Y2400D01*
G01X18998Y2390D01*
G01X18963Y2390D01*
G01X18944Y2400D01*
G01X18935Y2409D01*
G01X18926Y2426D01*
G01X18926Y2444D01*
G01X18935Y2463D01*
G01X18953Y2490D01*
G01X19044Y2582D01*
G01X18917Y2582D01*
G01X18150Y2426D02*
G01X18131Y2417D01*
G01X18105Y2390D01*
G01X18105Y2582D01*
G01X18044Y2426D02*
G01X18026Y2417D01*
G01X17998Y2390D01*
G01X17998Y2582D01*
G01X17150Y2426D02*
G01X17131Y2417D01*
G01X17105Y2390D01*
G01X17105Y2582D01*
G01X16989Y2390D02*
G01X17017Y2400D01*
G01X17035Y2426D01*
G01X17044Y2473D01*
G01X17044Y2500D01*
G01X17035Y2544D01*
G01X17017Y2573D01*
G01X16989Y2582D01*
G01X16972Y2582D01*
G01X16944Y2573D01*
G01X16926Y2544D01*
G01X16917Y2500D01*
G01X16917Y2473D01*
G01X16926Y2426D01*
G01X16944Y2400D01*
G01X16972Y2390D01*
G01X16989Y2390D01*
G01X16231Y2455D02*
G01X16240Y2482D01*
G01X16259Y2500D01*
G01X16285Y2509D01*
G01X16294Y2509D01*
G01X16322Y2500D01*
G01X16340Y2482D01*
G01X16350Y2455D01*
G01X16350Y2444D01*
G01X16340Y2417D01*
G01X16322Y2400D01*
G01X16294Y2390D01*
G01X16285Y2390D01*
G01X16259Y2400D01*
G01X16240Y2417D01*
G01X16231Y2455D01*
G01X16231Y2500D01*
G01X16240Y2544D01*
G01X16259Y2573D01*
G01X16285Y2582D01*
G01X16305Y2582D01*
G01X16331Y2573D01*
G01X16340Y2555D01*
G01X15305Y2390D02*
G01X15331Y2400D01*
G01X15340Y2417D01*
G01X15340Y2436D01*
G01X15331Y2455D01*
G01X15314Y2463D01*
G01X15277Y2473D01*
G01X15250Y2482D01*
G01X15231Y2500D01*
G01X15222Y2517D01*
G01X15222Y2544D01*
G01X15231Y2563D01*
G01X15240Y2573D01*
G01X15268Y2582D01*
G01X15305Y2582D01*
G01X15331Y2573D01*
G01X15340Y2563D01*
G01X15350Y2544D01*
G01X15350Y2517D01*
G01X15340Y2500D01*
G01X15322Y2482D01*
G01X15294Y2473D01*
G01X15259Y2463D01*
G01X15240Y2455D01*
G01X15231Y2436D01*
G01X15231Y2417D01*
G01X15240Y2400D01*
G01X15268Y2390D01*
G01X15305Y2390D01*
G01X13622Y2390D02*
G01X13714Y2582D01*
G01X13750Y2390D02*
G01X13622Y2390D01*
G01X12640Y2417D02*
G01X12650Y2400D01*
G01X12677Y2390D01*
G01X12694Y2390D01*
G01X12722Y2400D01*
G01X12740Y2426D01*
G01X12750Y2473D01*
G01X12750Y2517D01*
G01X12740Y2555D01*
G01X12722Y2573D01*
G01X12694Y2582D01*
G01X12685Y2582D01*
G01X12659Y2573D01*
G01X12640Y2555D01*
G01X12631Y2526D01*
G01X12631Y2517D01*
G01X12640Y2490D01*
G01X12659Y2473D01*
G01X12685Y2463D01*
G01X12694Y2463D01*
G01X12722Y2473D01*
G01X12740Y2490D01*
G01X12750Y2517D01*
G01X11640Y2390D02*
G01X11731Y2390D01*
G01X11740Y2473D01*
G01X11731Y2463D01*
G01X11705Y2455D01*
G01X11677Y2455D01*
G01X11650Y2463D01*
G01X11631Y2482D01*
G01X11622Y2509D01*
G01X11622Y2526D01*
G01X11631Y2555D01*
G01X11650Y2573D01*
G01X11677Y2582D01*
G01X11705Y2582D01*
G01X11731Y2573D01*
G01X11740Y2563D01*
G01X11750Y2544D01*
G01X10659Y2390D02*
G01X10750Y2517D01*
G01X10614Y2517D01*
G01X10659Y2390D02*
G01X10659Y2582D01*
G01X9731Y2390D02*
G01X9631Y2390D01*
G01X9685Y2463D01*
G01X9659Y2463D01*
G01X9640Y2473D01*
G01X9631Y2482D01*
G01X9622Y2509D01*
G01X9622Y2526D01*
G01X9631Y2555D01*
G01X9650Y2573D01*
G01X9677Y2582D01*
G01X9705Y2582D01*
G01X9731Y2573D01*
G01X9740Y2563D01*
G01X9750Y2544D01*
G01X8740Y2436D02*
G01X8740Y2426D01*
G01X8731Y2409D01*
G01X8722Y2400D01*
G01X8705Y2390D01*
G01X8668Y2390D01*
G01X8650Y2400D01*
G01X8640Y2409D01*
G01X8631Y2426D01*
G01X8631Y2444D01*
G01X8640Y2463D01*
G01X8659Y2490D01*
G01X8750Y2582D01*
G01X8622Y2582D01*
G01X7750Y2426D02*
G01X7731Y2417D01*
G01X7705Y2390D01*
G01X7705Y2582D01*
G01X6694Y2390D02*
G01X6722Y2400D01*
G01X6740Y2426D01*
G01X6750Y2473D01*
G01X6750Y2500D01*
G01X6740Y2544D01*
G01X6722Y2573D01*
G01X6694Y2582D01*
G01X6677Y2582D01*
G01X6650Y2573D01*
G01X6631Y2544D01*
G01X6622Y2500D01*
G01X6622Y2473D01*
G01X6631Y2426D01*
G01X6650Y2400D01*
G01X6677Y2390D01*
G01X6694Y2390D01*
G01X19550Y1390D02*
G01X19550Y1582D01*
G01X19550Y1390D02*
G01X19485Y1390D01*
G01X19459Y1400D01*
G01X19440Y1417D01*
G01X19431Y1436D01*
G01X19422Y1463D01*
G01X19422Y1509D01*
G01X19431Y1536D01*
G01X19440Y1555D01*
G01X19459Y1573D01*
G01X19485Y1582D01*
G01X19550Y1582D01*
G01X19363Y1390D02*
G01X19353Y1400D01*
G01X19344Y1390D01*
G01X19353Y1382D01*
G01X19363Y1390D01*
G01X19353Y1455D02*
G01X19353Y1582D01*
G01X19175Y1455D02*
G01X19175Y1600D01*
G01X19185Y1626D01*
G01X19193Y1636D01*
G01X19211Y1644D01*
G01X19239Y1644D01*
G01X19256Y1636D01*
G01X19175Y1482D02*
G01X19193Y1463D01*
G01X19211Y1455D01*
G01X19239Y1455D01*
G01X19256Y1463D01*
G01X19275Y1482D01*
G01X19285Y1509D01*
G01X19285Y1526D01*
G01X19275Y1555D01*
G01X19256Y1573D01*
G01X19239Y1582D01*
G01X19211Y1582D01*
G01X19193Y1573D01*
G01X19175Y1555D01*
G01X19114Y1390D02*
G01X19106Y1400D01*
G01X19097Y1390D01*
G01X19106Y1382D01*
G01X19114Y1390D01*
G01X19106Y1455D02*
G01X19106Y1582D01*
G01X19010Y1390D02*
G01X19010Y1544D01*
G01X19001Y1573D01*
G01X18982Y1582D01*
G01X18964Y1582D01*
G01X19036Y1455D02*
G01X18973Y1455D01*
G01X18794Y1455D02*
G01X18794Y1582D01*
G01X18794Y1482D02*
G01X18814Y1463D01*
G01X18831Y1455D01*
G01X18859Y1455D01*
G01X18877Y1463D01*
G01X18894Y1482D01*
G01X18905Y1509D01*
G01X18905Y1526D01*
G01X18894Y1555D01*
G01X18877Y1573D01*
G01X18859Y1582D01*
G01X18831Y1582D01*
G01X18814Y1573D01*
G01X18794Y1555D01*
G01X18735Y1390D02*
G01X18735Y1582D01*
G01X18535Y1390D02*
G01X18535Y1582D01*
G01X18311Y1355D02*
G01X18475Y1644D01*
G01X18197Y1390D02*
G01X18214Y1400D01*
G01X18234Y1417D01*
G01X18243Y1436D01*
G01X18252Y1463D01*
G01X18252Y1509D01*
G01X18243Y1536D01*
G01X18234Y1555D01*
G01X18214Y1573D01*
G01X18197Y1582D01*
G01X18160Y1582D01*
G01X18143Y1573D01*
G01X18125Y1555D01*
G01X18114Y1536D01*
G01X18106Y1509D01*
G01X18106Y1463D01*
G01X18114Y1436D01*
G01X18125Y1417D01*
G01X18143Y1400D01*
G01X18160Y1390D01*
G01X18197Y1390D01*
G01X11950Y1390D02*
G01X11950Y1582D01*
G01X11950Y1390D02*
G01X11885Y1390D01*
G01X11859Y1400D01*
G01X11840Y1417D01*
G01X11831Y1436D01*
G01X11822Y1463D01*
G01X11822Y1509D01*
G01X11831Y1536D01*
G01X11840Y1555D01*
G01X11859Y1573D01*
G01X11885Y1582D01*
G01X11950Y1582D01*
G01X11763Y1390D02*
G01X11753Y1400D01*
G01X11744Y1390D01*
G01X11753Y1382D01*
G01X11763Y1390D01*
G01X11753Y1455D02*
G01X11753Y1582D01*
G01X11575Y1455D02*
G01X11575Y1600D01*
G01X11585Y1626D01*
G01X11593Y1636D01*
G01X11611Y1644D01*
G01X11639Y1644D01*
G01X11656Y1636D01*
G01X11575Y1482D02*
G01X11593Y1463D01*
G01X11611Y1455D01*
G01X11639Y1455D01*
G01X11656Y1463D01*
G01X11675Y1482D01*
G01X11685Y1509D01*
G01X11685Y1526D01*
G01X11675Y1555D01*
G01X11656Y1573D01*
G01X11639Y1582D01*
G01X11611Y1582D01*
G01X11593Y1573D01*
G01X11575Y1555D01*
G01X11514Y1390D02*
G01X11506Y1400D01*
G01X11497Y1390D01*
G01X11506Y1382D01*
G01X11514Y1390D01*
G01X11506Y1455D02*
G01X11506Y1582D01*
G01X11410Y1390D02*
G01X11410Y1544D01*
G01X11401Y1573D01*
G01X11382Y1582D01*
G01X11364Y1582D01*
G01X11436Y1455D02*
G01X11373Y1455D01*
G01X11194Y1455D02*
G01X11194Y1582D01*
G01X11194Y1482D02*
G01X11214Y1463D01*
G01X11231Y1455D01*
G01X11259Y1455D01*
G01X11277Y1463D01*
G01X11294Y1482D01*
G01X11305Y1509D01*
G01X11305Y1526D01*
G01X11294Y1555D01*
G01X11277Y1573D01*
G01X11259Y1582D01*
G01X11231Y1582D01*
G01X11214Y1573D01*
G01X11194Y1555D01*
G01X11135Y1390D02*
G01X11135Y1582D01*
G01X10935Y1390D02*
G01X10935Y1582D01*
G01X10711Y1355D02*
G01X10875Y1644D01*
G01X10597Y1390D02*
G01X10614Y1400D01*
G01X10634Y1417D01*
G01X10643Y1436D01*
G01X10652Y1463D01*
G01X10652Y1509D01*
G01X10643Y1536D01*
G01X10634Y1555D01*
G01X10614Y1573D01*
G01X10597Y1582D01*
G01X10560Y1582D01*
G01X10543Y1573D01*
G01X10525Y1555D01*
G01X10514Y1536D01*
G01X10506Y1509D01*
G01X10506Y1463D01*
G01X10514Y1436D01*
G01X10525Y1417D01*
G01X10543Y1400D01*
G01X10560Y1390D01*
G01X10597Y1390D01*
G54D11*
G01X3205Y9694D02*
G01X3205Y9367D01*
G01X3184Y9307D01*
G01X3164Y9286D01*
G01X3122Y9265D01*
G01X3081Y9265D01*
G01X3040Y9286D01*
G01X3019Y9307D01*
G01X3000Y9367D01*
G01X3000Y9409D01*
G01X3360Y9592D02*
G01X3360Y9613D01*
G01X3380Y9655D01*
G01X3401Y9675D01*
G01X3442Y9694D01*
G01X3523Y9694D01*
G01X3564Y9675D01*
G01X3585Y9655D01*
G01X3605Y9613D01*
G01X3605Y9573D01*
G01X3585Y9532D01*
G01X3543Y9469D01*
G01X3339Y9265D01*
G01X3626Y9265D01*
G01X3205Y7794D02*
G01X3205Y7467D01*
G01X3184Y7407D01*
G01X3164Y7386D01*
G01X3122Y7365D01*
G01X3081Y7365D01*
G01X3040Y7386D01*
G01X3019Y7407D01*
G01X3000Y7467D01*
G01X3000Y7509D01*
G01X3339Y7713D02*
G01X3380Y7734D01*
G01X3442Y7794D01*
G01X3442Y7365D01*
G01X21439Y7700D02*
G01X21868Y7700D01*
G01X21439Y7700D02*
G01X21439Y7884D01*
G01X21459Y7944D01*
G01X21479Y7965D01*
G01X21520Y7986D01*
G01X21561Y7986D01*
G01X21602Y7965D01*
G01X21623Y7944D01*
G01X21643Y7884D01*
G01X21643Y7700D01*
G01X21643Y7842D02*
G01X21868Y7986D01*
G01X21439Y8284D02*
G01X21868Y8121D01*
G01X21439Y8284D02*
G01X21868Y8448D01*
G01X21725Y8182D02*
G01X21725Y8386D01*
G01X21439Y8584D02*
G01X21868Y8584D01*
G01X21439Y8584D02*
G01X21439Y8767D01*
G01X21459Y8828D01*
G01X21479Y8850D01*
G01X21520Y8869D01*
G01X21561Y8869D01*
G01X21602Y8850D01*
G01X21623Y8828D01*
G01X21643Y8767D01*
G01X21643Y8584D02*
G01X21643Y8767D01*
G01X21664Y8828D01*
G01X21684Y8850D01*
G01X21725Y8869D01*
G01X21786Y8869D01*
G01X21827Y8850D01*
G01X21848Y8828D01*
G01X21868Y8767D01*
G01X21868Y8584D01*
G01X21520Y9005D02*
G01X21500Y9046D01*
G01X21439Y9107D01*
G01X21868Y9107D01*
G54D10*
G75*
G01X3900Y11000D02*
G03X3900Y11000I-900J0D01*
G01*
G75*
G01X3900Y13000D02*
G03X3900Y13000I-900J0D01*
G01*
G75*
G01X3900Y6000D02*
G03X3900Y6000I-900J0D01*
G01*
G75*
G01X3900Y4000D02*
G03X3900Y4000I-900J0D01*
G01*

M00*
M02*